<mxfile host="app.diagrams.net" agent="Mozilla/5.0 (Windows NT 10.0; Win64; x64) AppleWebKit/537.36 (KHTML, like Gecko) Chrome/131.0.0.0 Safari/537.36" version="26.0.10">
  <diagram name="Pagina-1" id="zxHwAhVkagmIYCDwJM4e">
    <mxGraphModel dx="1050" dy="557" grid="1" gridSize="10" guides="1" tooltips="1" connect="1" arrows="1" fold="1" page="1" pageScale="1" pageWidth="827" pageHeight="1169" math="0" shadow="0">
      <root>
        <mxCell id="0" />
        <mxCell id="1" parent="0" />
        <mxCell id="SitasMFB1eJotWUJEWGU-3" value="" style="edgeStyle=orthogonalEdgeStyle;rounded=0;orthogonalLoop=1;jettySize=auto;html=1;" edge="1" parent="1" source="SitasMFB1eJotWUJEWGU-1" target="SitasMFB1eJotWUJEWGU-2">
          <mxGeometry relative="1" as="geometry" />
        </mxCell>
        <mxCell id="SitasMFB1eJotWUJEWGU-1" value="start" style="ellipse;whiteSpace=wrap;html=1;" vertex="1" parent="1">
          <mxGeometry x="354" width="120" height="80" as="geometry" />
        </mxCell>
        <mxCell id="SitasMFB1eJotWUJEWGU-5" value="" style="edgeStyle=orthogonalEdgeStyle;rounded=0;orthogonalLoop=1;jettySize=auto;html=1;" edge="1" parent="1" source="SitasMFB1eJotWUJEWGU-2" target="SitasMFB1eJotWUJEWGU-4">
          <mxGeometry relative="1" as="geometry" />
        </mxCell>
        <mxCell id="SitasMFB1eJotWUJEWGU-2" value="write&amp;nbsp;&lt;div&gt;&quot;Insert the tree numbers&quot;&lt;/div&gt;" style="shape=parallelogram;perimeter=parallelogramPerimeter;whiteSpace=wrap;html=1;fixedSize=1;" vertex="1" parent="1">
          <mxGeometry x="354" y="170" width="120" height="60" as="geometry" />
        </mxCell>
        <mxCell id="SitasMFB1eJotWUJEWGU-7" value="" style="edgeStyle=orthogonalEdgeStyle;rounded=0;orthogonalLoop=1;jettySize=auto;html=1;" edge="1" parent="1" source="SitasMFB1eJotWUJEWGU-4" target="SitasMFB1eJotWUJEWGU-6">
          <mxGeometry relative="1" as="geometry" />
        </mxCell>
        <mxCell id="SitasMFB1eJotWUJEWGU-4" value="read x" style="shape=parallelogram;perimeter=parallelogramPerimeter;whiteSpace=wrap;html=1;fixedSize=1;" vertex="1" parent="1">
          <mxGeometry x="354" y="310" width="120" height="60" as="geometry" />
        </mxCell>
        <mxCell id="SitasMFB1eJotWUJEWGU-9" value="" style="edgeStyle=orthogonalEdgeStyle;rounded=0;orthogonalLoop=1;jettySize=auto;html=1;" edge="1" parent="1" source="SitasMFB1eJotWUJEWGU-6" target="SitasMFB1eJotWUJEWGU-8">
          <mxGeometry relative="1" as="geometry" />
        </mxCell>
        <mxCell id="SitasMFB1eJotWUJEWGU-6" value="read y" style="shape=parallelogram;perimeter=parallelogramPerimeter;whiteSpace=wrap;html=1;fixedSize=1;" vertex="1" parent="1">
          <mxGeometry x="354" y="450" width="120" height="60" as="geometry" />
        </mxCell>
        <mxCell id="SitasMFB1eJotWUJEWGU-11" value="" style="edgeStyle=orthogonalEdgeStyle;rounded=0;orthogonalLoop=1;jettySize=auto;html=1;" edge="1" parent="1" source="SitasMFB1eJotWUJEWGU-8" target="SitasMFB1eJotWUJEWGU-10">
          <mxGeometry relative="1" as="geometry" />
        </mxCell>
        <mxCell id="SitasMFB1eJotWUJEWGU-8" value="read z" style="shape=parallelogram;perimeter=parallelogramPerimeter;whiteSpace=wrap;html=1;fixedSize=1;" vertex="1" parent="1">
          <mxGeometry x="354" y="590" width="120" height="60" as="geometry" />
        </mxCell>
        <mxCell id="SitasMFB1eJotWUJEWGU-14" value="" style="edgeStyle=orthogonalEdgeStyle;rounded=0;orthogonalLoop=1;jettySize=auto;html=1;" edge="1" parent="1" source="SitasMFB1eJotWUJEWGU-10" target="SitasMFB1eJotWUJEWGU-13">
          <mxGeometry relative="1" as="geometry" />
        </mxCell>
        <mxCell id="SitasMFB1eJotWUJEWGU-17" value="FALSE" style="edgeLabel;html=1;align=center;verticalAlign=middle;resizable=0;points=[];" vertex="1" connectable="0" parent="SitasMFB1eJotWUJEWGU-14">
          <mxGeometry x="-0.6703" y="1" relative="1" as="geometry">
            <mxPoint as="offset" />
          </mxGeometry>
        </mxCell>
        <mxCell id="SitasMFB1eJotWUJEWGU-16" value="" style="edgeStyle=orthogonalEdgeStyle;rounded=0;orthogonalLoop=1;jettySize=auto;html=1;" edge="1" parent="1" source="SitasMFB1eJotWUJEWGU-10" target="SitasMFB1eJotWUJEWGU-15">
          <mxGeometry relative="1" as="geometry" />
        </mxCell>
        <mxCell id="SitasMFB1eJotWUJEWGU-18" value="TRUE" style="edgeLabel;html=1;align=center;verticalAlign=middle;resizable=0;points=[];" vertex="1" connectable="0" parent="SitasMFB1eJotWUJEWGU-16">
          <mxGeometry x="-0.6974" y="1" relative="1" as="geometry">
            <mxPoint as="offset" />
          </mxGeometry>
        </mxCell>
        <mxCell id="SitasMFB1eJotWUJEWGU-10" value="(x + y + z) % 2 == 0&lt;div&gt;AND&lt;/div&gt;&lt;div&gt;((x % 3 == 0) AND (y % 5 == 0) AND (z % 7 ==0))&lt;/div&gt;&lt;div&gt;&lt;br&gt;&lt;/div&gt;" style="rhombus;whiteSpace=wrap;html=1;" vertex="1" parent="1">
          <mxGeometry x="239" y="720" width="350" height="140" as="geometry" />
        </mxCell>
        <mxCell id="SitasMFB1eJotWUJEWGU-20" style="edgeStyle=orthogonalEdgeStyle;rounded=0;orthogonalLoop=1;jettySize=auto;html=1;exitX=0.5;exitY=1;exitDx=0;exitDy=0;entryX=0;entryY=0.5;entryDx=0;entryDy=0;" edge="1" parent="1" source="SitasMFB1eJotWUJEWGU-13" target="SitasMFB1eJotWUJEWGU-19">
          <mxGeometry relative="1" as="geometry" />
        </mxCell>
        <mxCell id="SitasMFB1eJotWUJEWGU-13" value="write&lt;div&gt;&quot;Rules respected&quot;&lt;/div&gt;" style="shape=parallelogram;perimeter=parallelogramPerimeter;whiteSpace=wrap;html=1;fixedSize=1;" vertex="1" parent="1">
          <mxGeometry x="80" y="970" width="120" height="60" as="geometry" />
        </mxCell>
        <mxCell id="SitasMFB1eJotWUJEWGU-21" style="edgeStyle=orthogonalEdgeStyle;rounded=0;orthogonalLoop=1;jettySize=auto;html=1;exitX=0.5;exitY=1;exitDx=0;exitDy=0;entryX=1;entryY=0.5;entryDx=0;entryDy=0;" edge="1" parent="1" source="SitasMFB1eJotWUJEWGU-15" target="SitasMFB1eJotWUJEWGU-19">
          <mxGeometry relative="1" as="geometry" />
        </mxCell>
        <mxCell id="SitasMFB1eJotWUJEWGU-15" value="write&lt;div&gt;&quot;Rules&amp;nbsp;&lt;/div&gt;&lt;div&gt;not respected&quot;&lt;/div&gt;" style="shape=parallelogram;perimeter=parallelogramPerimeter;whiteSpace=wrap;html=1;fixedSize=1;" vertex="1" parent="1">
          <mxGeometry x="620" y="970" width="120" height="60" as="geometry" />
        </mxCell>
        <mxCell id="SitasMFB1eJotWUJEWGU-23" style="edgeStyle=orthogonalEdgeStyle;rounded=0;orthogonalLoop=1;jettySize=auto;html=1;exitX=0.5;exitY=1;exitDx=0;exitDy=0;entryX=0.5;entryY=0;entryDx=0;entryDy=0;" edge="1" parent="1" source="SitasMFB1eJotWUJEWGU-19" target="SitasMFB1eJotWUJEWGU-22">
          <mxGeometry relative="1" as="geometry" />
        </mxCell>
        <mxCell id="SitasMFB1eJotWUJEWGU-19" value="" style="ellipse;whiteSpace=wrap;html=1;aspect=fixed;" vertex="1" parent="1">
          <mxGeometry x="399" y="1080" width="30" height="30" as="geometry" />
        </mxCell>
        <mxCell id="SitasMFB1eJotWUJEWGU-22" value="end" style="ellipse;whiteSpace=wrap;html=1;" vertex="1" parent="1">
          <mxGeometry x="354" y="1150" width="120" height="80" as="geometry" />
        </mxCell>
      </root>
    </mxGraphModel>
  </diagram>
</mxfile>
